<?xml version="1.0" encoding="UTF-8"?>
<svg width="413px" height="526px" viewBox="0 0 413 526" version="1.1" xmlns="http://www.w3.org/2000/svg" xmlns:xlink="http://www.w3.org/1999/xlink">
    <!-- Generator: Sketch 51.3 (57544) - http://www.bohemiancoding.com/sketch -->
    <title>Group 4</title>
    <desc>Created with Sketch.</desc>
    <defs>
        <polygon id="path-1" points="0 0.00421306875 199.917203 0.00421306875 199.917203 228.107579 0 228.107579"></polygon>
    </defs>
    <g id="Page-1" stroke="none" stroke-width="1" fill="none" fill-rule="evenodd">
        <g id="Artboard-2" transform="translate(-145.000000, -111.000000)">
            <g id="Group-4" transform="translate(-97.000000, 111.000000)">
                <g id="Group-2" transform="translate(242.000000, 0.000000)">
                    <g id="Group" transform="translate(206.500000, 196.000000) scale(1, -1) translate(-206.500000, -196.000000) " fill="#000000">
                        <polygon id="Triangle" transform="translate(206.500000, 196.000000) scale(1, -1) translate(-206.500000, -196.000000) " points="206.5 0 413 392 0 392"></polygon>
                    </g>
                    <g id="Group-16" transform="translate(206.026895, 249.705379) scale(1, -1) translate(-206.026895, -249.705379) translate(106.026895, 135.205379)">
                        <g id="Group-3">
                            <mask id="mask-2" fill="white">
                                <use xlink:href="#path-1"></use>
                            </mask>
                            <g id="Clip-2"></g>
                            <path d="M97.4874065,7.15311149 C93.8325216,10.1544501 90.2924017,13.0842525 87.0327883,16.4107712 C88.7765479,18.0760511 90.5244579,19.6798546 92.1917978,21.35657 C93.7582672,22.9320857 97.0092191,25.9545756 97.4874065,26.147689 L97.4874065,7.15311149 Z M176.994257,50.2571038 C176.794772,51.9384622 176.877688,63.589059 177.112,64.2052848 C181.786506,59.7460524 186.437915,55.3089172 191.12767,50.8350681 C189.282498,50.3962211 179.450155,49.9933142 176.994257,50.2571038 Z M194.589114,54.2654519 C189.954757,58.6494508 185.264011,63.086672 180.596902,67.5017961 C181.48182,67.6661058 194.510619,67.6324012 195.148864,67.4533028 C195.37659,65.1138459 194.934582,55.3892235 194.589114,54.2654519 Z M22.9042609,50.8932772 C18.1307786,50.6909639 13.4784672,51.1060802 8.77734463,51.3189691 C9.17153337,52.0189404 22.2424677,64.4759529 22.9042609,64.8018209 L22.9042609,50.8932772 Z M5.38681615,54.7007736 C5.32275709,54.739981 5.25878826,54.7791023 5.19472921,54.8183096 C4.86053943,59.2535533 4.47907227,63.6872493 4.66312927,68.1786385 L19.5177925,68.1786385 C14.7100251,63.5931861 10.0484206,59.1469369 5.38681615,54.7007736 Z M102.445397,7.20753746 C102.239776,8.01584479 102.255205,25.5066147 102.482659,26.2640212 C105.949337,22.9632108 109.372707,19.7035854 112.834964,16.406988 C109.572463,13.0719572 106.017276,10.1518706 102.445397,7.20753746 Z M194.901289,72.1927472 C194.554829,72.1721978 194.264037,72.1400409 193.973245,72.1398689 C188.109045,72.1369456 182.244934,72.1447698 176.380824,72.1269718 C175.787511,72.1251662 175.341443,72.3075319 174.943826,72.6939304 C174.082728,73.5306115 173.212157,74.3583505 172.348983,75.193054 C170.453016,77.0264268 168.569589,78.8716649 166.661712,80.6937742 C164.753925,82.5159694 162.819071,84.3123703 160.903615,86.1273431 C160.232439,86.7631726 159.583277,87.4204113 158.822779,88.1674142 L191.093294,88.1674142 C193.271212,83.0242031 194.318623,77.7035271 194.901289,72.1927472 Z M44.2949327,85.4284896 C44.3522249,85.4083701 44.4095172,85.3882505 44.4667192,85.368131 L44.4667192,54.6208973 C39.0407368,52.7907058 33.5517781,51.4266173 27.6901039,51.1439978 L27.6901039,52.1090485 L27.6901039,60.1844695 C27.6901039,63.1054159 27.6943444,66.0263622 27.6851416,68.9472226 C27.6839687,69.3340511 27.7404489,69.6534705 28.0563232,69.9483853 C29.535546,71.3299279 30.991491,72.7339976 32.4560976,74.1298131 C34.9188524,76.4768363 37.3828705,78.8225698 39.844272,81.1708827 C41.3299007,82.5881934 42.8115596,84.0092013 44.2949327,85.4284896 Z M97.3121012,55.431784 C97.3878894,55.4096009 97.4636775,55.3873319 97.5395559,55.3651488 L97.5395559,54.536034 L97.5395559,45.6006311 C97.5394657,41.5625337 97.5327891,37.5243503 97.5481272,33.4863388 C97.5499317,32.9899705 97.4637678,32.58543 96.9872947,32.318545 C96.8860634,32.2617975 96.8028768,32.1730651 96.7183369,32.0925009 C94.5562987,30.0307626 92.3922755,27.97083 90.2352899,25.9042768 C89.3685979,25.0738723 88.5232891,24.2230904 87.6582212,23.3911383 C86.5634429,22.338387 85.4584693,21.2953515 84.3239925,20.2160321 C83.3385657,20.931222 82.3020722,21.4617247 81.6133922,22.4069138 C81.0491312,23.1810867 80.4339838,23.9221569 79.8807301,24.7031223 C78.3348317,26.8852339 76.901533,29.1320893 75.6754787,31.495019 C75.3961452,32.033432 75.080722,32.5557665 74.8216888,33.1027776 C74.5465056,33.6839232 74.5965799,33.8007713 75.0590682,34.2293006 C76.2846713,35.3651096 77.5183044,36.4934381 78.7254115,37.6469592 C80.4185555,39.2652075 82.0789482,40.9147529 83.7750695,42.5301638 C85.620241,44.2876153 87.4985247,46.0134259 89.3466735,47.768126 C90.4722182,48.8370417 91.5567109,49.9452508 92.6804511,51.0160581 C93.8253939,52.1070709 95.0005618,53.1691942 96.1526323,54.2535865 C96.5543096,54.6316449 96.9263935,55.038249 97.3121012,55.431784 Z M116.043961,19.850011 C115.392003,20.4476649 114.736886,21.0340553 114.09819,21.6363521 C111.475829,24.1098534 108.854641,26.5844724 106.241031,29.0662278 C105.115216,30.1352296 104.035234,31.2494573 102.879826,32.2877638 C102.46669,32.6590297 102.290843,33.0123256 102.294001,33.5435162 C102.314031,36.8078706 102.304016,40.072569 102.304016,43.3370954 C102.304106,47.0599006 102.302753,50.7827057 102.307083,54.5054248 C102.307444,54.7938051 102.347504,55.0820993 102.369158,55.3704796 C102.779948,55.18777 102.997297,54.9624998 103.221684,54.7435922 C103.661887,54.3138592 104.104256,53.8861037 104.548789,53.4604118 C105.604862,52.4490174 106.661385,51.4381388 107.720074,50.4291518 C108.886399,49.3177615 110.055613,48.2090366 111.223111,47.098678 C112.240838,46.1307899 113.258295,45.1628159 114.274939,44.194068 C115.462648,43.0624721 116.646116,41.9266632 117.837615,40.7986785 C118.79426,39.8931267 119.76471,39.0009019 120.721084,38.0950921 C122.038626,36.847078 123.337581,35.5810938 124.667122,34.3448591 C125.220827,33.8300909 125.326209,33.6714559 124.97632,33.0069948 C124.155732,31.4487612 123.363565,29.8712679 122.43498,28.3716734 C120.573117,25.3651759 118.462777,22.5176573 116.043961,19.850011 Z M155.33562,54.0529928 L155.33562,84.8530188 C155.728816,84.5096967 156.081231,84.2197688 156.412715,83.9094634 C158.359929,82.0866663 160.312377,80.2688561 162.243081,78.4302385 C163.961127,76.7941062 165.648767,75.1289982 167.358242,73.4845257 C168.772413,72.1241344 170.18072,70.7572945 171.63071,69.4321554 C172.070011,69.0306242 172.184866,68.6087154 172.183512,68.0647997 C172.17052,62.5081059 172.175663,56.9514122 172.175663,51.3947184 L172.175663,50.5680971 C169.071866,50.3149691 158.559324,52.5007779 155.33562,54.0529928 Z M41.17255,88.8540584 C40.836646,88.5187326 40.6242586,88.2981913 40.402488,88.0866781 C38.110437,85.9003533 35.8166717,83.7154903 33.523538,81.5301973 C30.6156178,78.7589438 27.7037277,75.9914736 24.8056419,73.2109342 C24.4660387,72.8851522 24.1249017,72.7273771 23.6278576,72.7286668 C17.645193,72.7441433 11.6624381,72.7380387 5.67977354,72.7415639 C5.4505143,72.7417359 5.22125507,72.7827488 4.9328991,72.8103487 C5.53315951,78.3566388 6.57380336,83.7353519 8.76624707,88.8540584 L41.17255,88.8540584 Z M49.3136439,56.5499669 L49.3136439,59.1546751 C49.3136439,69.2131618 49.3145461,79.2717345 49.3110274,89.3303072 C49.3108469,89.8212587 49.3424253,90.245145 49.7646737,90.6452145 C55.3296913,95.918171 60.8732356,101.211763 66.4250805,106.497359 C66.5800854,106.644816 66.7685634,106.760288 67.0783025,106.993813 C67.2516228,103.915263 67.4614839,101.000766 67.570294,98.0829145 C67.798651,91.9571985 67.1845863,85.8954524 65.8685788,79.8994817 C65.3198363,77.3993264 64.4267989,74.989623 63.450575,72.6219644 C62.5951611,70.5474149 61.5186081,68.556439 60.2190213,66.6890178 C59.9207407,66.2604025 59.6442943,65.8135593 59.3040595,65.4169289 C58.2796559,64.2227389 57.2987404,62.9835808 56.1680529,61.8862914 C55.0797708,60.8300148 53.8456867,59.9056332 52.6386697,58.9663768 C51.6206721,58.1742339 50.5498032,57.4439973 49.3136439,56.5499669 Z M189.101148,92.715035 L187.994009,92.715035 L154.994032,92.715035 C154.843719,92.715035 154.692413,92.7259546 154.543363,92.7131434 C154.18788,92.6827062 153.937418,92.8015319 153.68416,93.0623982 C152.890459,93.8804214 152.064097,94.6705008 151.233765,95.4555073 C149.360173,97.2267158 147.467815,98.9800402 145.600178,100.757009 C144.51776,101.786804 143.482169,102.861222 142.401105,103.89222 C140.535542,105.671425 138.64959,107.431198 136.777802,109.204556 C136.669443,109.307218 136.61197,109.458372 136.489266,109.652689 C138.449834,109.782606 140.302043,109.918628 142.156056,110.025675 C147.628233,110.341741 153.087689,110.227472 158.525851,109.528962 C161.503515,109.146433 164.454833,108.613007 167.340828,107.819832 C169.009702,107.361124 170.659448,106.803623 172.257406,106.155326 C174.100773,105.407549 175.944411,104.618502 177.664712,103.64898 C179.466035,102.633803 181.148803,101.43325 182.704626,100.061509 C184.012964,98.9080741 185.169456,97.6441535 186.293828,96.3447227 C187.094746,95.4189653 187.833049,94.4438549 188.591743,93.4854247 C188.746207,93.2903339 188.867378,93.0714262 189.101148,92.715035 Z M72.6023584,38.3588818 C72.5004052,39.1195557 72.4070234,39.738103 72.3362877,40.3590577 C72.1259755,42.207907 71.8045073,44.054005 71.7428843,45.9075833 C71.5761503,50.9247463 72.8576021,55.6734766 75.0113397,60.2148208 C76.4233456,63.1920847 78.1828043,65.9855213 80.1641238,68.6564349 C82.0046036,71.1375025 83.9903441,73.5079985 86.1694346,75.7172802 C87.9953883,77.568451 89.9347537,79.3212596 91.8752919,81.0658139 C93.5115948,82.5367768 95.2199866,83.9349138 96.9014917,85.3600488 C97.063534,85.4973604 97.2606735,85.5970984 97.5395559,85.7777444 L97.5395559,84.70281 C97.5395559,77.4542682 97.5395559,70.2056405 97.5393755,62.9570127 C97.5393755,62.7278733 97.5631044,62.4950368 97.5280975,62.2707124 C97.5039175,62.1150008 97.4320089,61.9414052 97.3225672,61.8267925 C96.878665,61.3618073 96.4215901,60.9072258 95.9517034,60.4658853 C94.8192115,59.4022144 93.6636222,58.3606407 92.5414159,57.2873399 C90.6141405,55.4440793 88.7123986,53.5768301 86.7859353,51.7329676 C85.7701031,50.7607805 84.7170985,49.8240176 83.694319,48.858451 C82.2665239,47.5105269 80.8498263,46.1517693 79.4312341,44.7950752 C78.5842109,43.9850482 77.7421502,43.1704643 76.8988262,42.3570841 C75.6541859,41.1567894 74.4119815,39.9540012 73.163642,38.7571458 C73.0403058,38.6389219 72.8811506,38.5547465 72.6023584,38.3588818 Z M10.8030543,93.4132867 C11.1099062,93.8708775 11.2807003,94.1695755 11.4950726,94.4364605 C11.9876957,95.0498489 12.5387841,95.6232562 12.9995581,96.2568501 C14.1847409,97.8867059 15.5758148,99.3341099 17.0929317,100.685645 C18.3917967,101.842605 19.774931,102.900946 21.2853713,103.777522 C22.8689833,104.696659 24.4735273,105.57805 26.1874228,106.298227 C28.7263268,107.365079 31.3356957,108.177513 34.006056,108.863642 C38.9427536,110.132033 43.9908777,110.547235 49.0712119,110.741381 C53.7045763,110.918587 58.3215199,110.570966 62.9413506,110.322825 C63.1097087,110.313797 63.2755404,110.263412 63.5534304,110.211566 C63.2611948,109.916651 63.0447474,109.687339 62.8164806,109.469378 C57.4022273,104.300114 51.9802148,99.1382452 46.5839161,93.9521296 C46.1582392,93.543118 45.7442914,93.4045166 45.1695644,93.4050325 C34.0785961,93.41621 22.9876279,93.4132867 11.8967499,93.4132867 L10.8030543,93.4132867 Z M132.820216,106.268477 C133.089986,106.104339 133.279727,106.027215 133.416777,105.899017 C134.273183,105.097846 135.122913,104.289883 135.965064,103.475041 C137.101887,102.375 138.217236,101.254495 139.364615,100.164686 C141.085458,98.5301017 142.837699,96.9254384 144.555203,95.2878443 C146.400284,93.5286732 148.210088,91.7357975 150.060763,89.9823011 C150.438982,89.6239323 150.55501,89.2562775 150.554469,88.7680774 C150.543281,78.0812416 150.546168,67.3944058 150.544364,56.707656 C150.544364,56.4923596 150.520545,56.2771492 150.497718,55.8919543 C150.047049,56.223841 149.721521,56.4594289 149.400955,56.7008635 C149.047728,56.9667168 148.703433,57.2436616 148.347499,57.5061615 C147.232511,58.3279679 146.045433,59.0744549 145.011376,59.9798348 C143.086266,61.6652342 141.378054,63.5358367 139.917598,65.6232833 C138.458585,67.7087524 137.234697,69.9057387 136.299254,72.2305789 C135.25843,74.817575 134.358265,77.4486795 133.804109,80.1916452 C133.001115,84.1664606 132.472312,88.1581283 132.296916,92.2029322 C132.135055,95.9326158 132.34275,99.6475107 132.58446,103.364297 C132.645181,104.298395 132.735134,105.230687 132.820216,106.268477 Z M127.260702,38.3245754 C126.938331,38.5730605 126.670546,38.7439047 126.448234,38.9576535 C125.920334,39.4653712 125.428613,40.0074814 124.89593,40.5104702 C123.171659,42.1387783 121.425734,43.746365 119.707147,45.3800899 C118.475679,46.5508071 117.288602,47.763827 116.056683,48.9342003 C114.188504,50.70902 112.290191,52.455208 110.42111,54.2292539 C109.338061,55.2572426 108.299402,56.32762 107.218248,57.3573284 C106.073124,58.4479114 104.895701,59.5074552 103.743811,60.5915036 C103.275007,61.0325861 102.660401,61.4350631 102.431683,61.9775172 C102.190424,62.5496347 102.307986,63.267748 102.307444,63.9220634 C102.301941,70.8534213 102.302482,77.7848652 102.30961,84.716309 C102.309971,85.0322032 102.207566,85.3796524 102.46696,85.725382 C102.854202,85.4148186 103.200211,85.1477617 103.53413,84.8675496 C104.885145,83.7335463 106.247076,82.6107205 107.576166,81.4537602 C108.549413,80.6065894 109.489457,79.7237366 110.423275,78.8366707 C111.63327,77.6872767 112.851655,76.5436435 114.011395,75.3488516 C114.987348,74.3435618 115.920264,73.2954535 116.808069,72.2181976 C118.087535,70.6654668 119.391543,69.1212481 120.532336,67.4770336 C121.703895,65.7881949 122.706825,63.991708 123.756491,62.2276359 C125.156317,59.8753678 126.169984,57.3571565 126.91758,54.7654313 C128.05756,50.813057 128.492169,46.7846754 127.854647,42.6909483 C127.635222,41.2816338 127.468668,39.864753 127.260702,38.3245754 Z M102.54347,135.610094 C102.926922,135.216301 103.295848,134.808321 103.696624,134.431294 C104.849777,133.346558 106.028915,132.286842 107.172775,131.193508 C108.273598,130.141272 109.327775,129.044585 110.429862,127.993639 C112.295875,126.214004 114.191031,124.462314 116.058848,122.684657 C117.141266,121.654432 118.187323,120.589644 119.262252,119.552369 C120.842706,118.027066 122.433266,116.511049 124.02202,114.993399 C125.441244,113.63765 126.856137,112.277517 128.290609,110.936557 C128.62128,110.62737 128.73406,110.342257 128.655926,109.882086 C127.63874,103.895402 127.266747,97.8660704 127.520457,91.8093972 C127.710198,87.2804343 128.361976,82.8092506 129.376996,78.3709976 C129.988535,75.6971606 130.865783,73.1151513 131.884142,70.5847307 C132.860185,68.1595507 134.12666,65.8471778 135.625551,63.6499335 C137.041166,61.5748682 138.620989,59.6411556 140.464175,57.9103582 C141.465752,56.969984 142.563688,56.1210937 143.637083,55.2521697 C145.386166,53.8362347 147.340058,52.6953529 149.368474,51.7068294 C151.39247,50.7204554 153.432344,49.7376067 155.643735,49.1412425 C157.780781,48.5648259 159.873798,47.8142118 162.036829,47.3588565 C164.584033,46.822593 167.175358,46.4419551 169.76614,46.1365506 C173.917979,45.6471468 178.094449,45.4996034 182.2794,45.6167096 C186.883532,45.7455951 191.451393,46.2340531 196.008789,46.8373817 C196.77822,46.9391832 197.55171,47.0132129 198.387906,47.1073621 C198.55843,48.2920942 198.711269,49.4514619 198.893883,50.6065306 C199.653118,55.4062477 199.934436,60.2385516 199.916392,65.0853002 C199.900422,69.3848659 199.752635,73.68211 198.920048,77.9250142 C198.61103,79.5001 198.204661,81.0575598 197.889328,82.6316138 C197.345097,85.3474095 196.248334,87.8930489 195.273734,90.4759179 C195.051242,91.0657476 194.720029,91.6186054 194.436816,92.1876276 C193.249829,94.5726544 191.850093,96.8375658 190.185641,98.9486571 C188.920249,100.55332 187.502017,102.034171 185.955127,103.392241 C183.960273,105.143674 181.762326,106.656337 179.412171,107.934961 C175.903539,109.843739 172.170881,111.293378 168.272301,112.286975 C163.943353,113.390197 159.540872,114.226448 155.059805,114.456705 C151.521309,114.638469 147.967836,114.633998 144.422574,114.591781 C141.961714,114.562634 139.500944,114.359977 137.045046,114.17486 C135.699174,114.073316 134.360881,113.863866 133.024483,113.669807 C132.438658,113.584772 132.036891,113.70033 131.624567,114.162478 C130.888519,114.987724 130.039331,115.721486 129.235886,116.492047 C127.797715,117.871097 126.363875,119.254359 124.917764,120.625842 C123.705875,121.775236 122.467641,122.899523 121.261707,124.054506 C119.526608,125.716174 117.817766,127.402692 116.083479,129.065134 C114.983649,130.119433 113.845382,131.137448 112.746905,132.192951 C110.951266,133.918503 109.183056,135.670108 107.385433,137.393769 C106.243287,138.489081 105.065232,139.550517 103.910455,140.634049 C103.440297,141.075304 102.976546,141.524382 102.537155,141.993151 C102.411292,142.127367 102.340286,142.338192 102.316196,142.522364 C102.279294,142.804725 102.304106,143.094481 102.304106,143.381056 C102.304016,171.208977 102.304016,199.036812 102.304016,226.864733 L102.304016,228.107588 L97.5395559,228.107588 L97.5395559,226.989319 L97.5395559,173.597615 C97.5394657,163.624249 97.5327891,153.650884 97.5529993,143.677604 C97.5544429,142.915039 97.3730926,142.37826 96.7481108,141.820501 C94.9523821,140.217987 93.273674,138.497249 91.5336135,136.837558 C83.9070673,129.563136 76.2751978,122.293873 68.6450426,115.022718 C67.8177785,114.234444 67.8186808,114.244418 66.7048652,114.373304 C61.3897682,114.988584 56.0633931,115.454945 50.7008382,115.353573 C47.2723254,115.288743 43.8625792,115.001911 40.4545472,114.625056 C37.0356884,114.24717 33.7254593,113.470933 30.4255158,112.582148 C26.5235073,111.531288 22.852743,109.988015 19.4122304,107.972105 C17.859475,107.06234 16.3975752,105.991962 14.9875542,104.886505 C13.739756,103.908127 12.5503327,102.841103 11.4662009,101.700221 C10.4640827,100.645406 9.63014207,99.4446815 8.7340371,98.2997586 C8.37512594,97.8412219 8.026771,97.3727115 7.70972379,96.8872628 C5.27764508,93.1645437 3.53785529,89.1426966 2.35718375,84.9268765 C1.22559408,80.8867155 0.37252596,76.7700315 0.153101141,72.5837888 C-0.0282491409,69.1247734 -0.00280596705,65.6538926 0.00702845123,62.1884286 C0.0149681651,59.4090069 0.208318242,56.6349161 0.616040592,53.8783654 C0.888697583,52.0351048 1.15043747,50.1903826 1.4213802,48.3469501 C1.44583091,48.1801469 1.50186003,48.0175569 1.55662601,47.7993371 C2.66340407,47.6402723 3.75403204,47.4573047 4.8517877,47.3300528 C10.1066151,46.7210495 15.3722694,46.2159111 20.6737427,46.279623 C26.0918756,46.3445387 31.4852871,46.7174383 36.7980384,47.8026044 C38.2649907,48.1022482 39.7066803,48.5134953 41.1644298,48.8563015 C43.8299181,49.4831889 46.3586267,50.4747217 48.8288702,51.5808672 C51.0831174,52.5903701 53.2152012,53.8094946 55.2513769,55.2040204 C57.3654159,56.6519403 59.2482108,58.3214333 60.978076,60.1437145 C62.4268031,61.6698772 63.6517746,63.3745364 64.7886875,65.1320739 C65.9422918,66.9155777 66.9530715,68.7772382 67.7437046,70.7192049 C68.6650723,72.9823107 69.5355537,75.2865154 70.1414982,77.6399872 C72.0294358,84.9722745 72.7162211,92.4257949 72.3135513,99.9730347 C72.1271484,103.46713 71.8208379,106.945921 71.2049687,110.395221 C71.1148349,110.900531 71.3375078,111.190459 71.6730509,111.508589 C74.5063559,114.195409 77.3290144,116.892375 80.1551916,119.585902 C83.1494562,122.439697 86.1439012,125.292976 89.138256,128.146599 C91.4515999,130.351152 93.771079,132.549944 96.0725134,134.765588 C96.4900701,135.167549 96.8339139,135.639069 97.2117721,136.078518 C97.2682523,136.024522 97.3247325,135.970612 97.3812128,135.916702 C97.4089116,135.905266 97.4400388,135.898216 97.4629557,135.881192 C97.4834366,135.865973 97.5083384,135.839749 97.5083384,135.81834 C97.5103234,121.032704 97.5102331,106.246982 97.5102331,91.4813797 C95.4579976,89.9113667 93.3975516,88.3852041 91.3993602,86.788365 C90.0901194,85.7422343 88.8627119,84.6022123 87.6137407,83.4887584 C86.5626309,82.5518235 85.4959123,81.626668 84.5040796,80.6346193 C83.3251223,79.4555619 82.1933522,78.2312785 81.0877471,76.9890251 C79.8070171,75.5497892 78.5309788,74.1026431 77.3390292,72.5971158 C76.347377,71.3446307 75.4788806,70.0035851 74.5594978,68.6995114 C74.2412777,68.2480252 73.8971633,67.8084043 73.6282055,67.3309519 C72.5633816,65.4413475 71.3968752,63.5916384 70.4986049,61.6311857 C67.9137769,55.9900586 66.5387628,50.1020801 67.0711748,43.9107606 C67.2130069,42.2619891 67.5914967,40.6305857 67.8834616,38.9948832 C68.2993041,36.6654001 69.2151682,34.4891352 70.1118145,32.300317 C70.748345,30.7466404 71.5916689,29.3023317 72.3699413,27.8196754 C73.4090513,25.839791 74.6591051,23.9875884 75.9757443,22.1781184 C79.8113479,16.9074834 84.3247143,12.2037211 89.3381022,7.93639835 C91.2171077,6.33706587 93.1606233,4.80531444 95.1036878,3.27622843 C96.4215901,2.23921165 97.7877622,1.25765261 99.1373331,0.257349716 C99.5879119,-0.0766004684 100.261885,-0.0845107199 100.719682,0.259499241 C101.615065,0.932386507 102.489336,1.63063817 103.379576,2.30980205 C104.433754,3.11415425 105.501104,3.90277194 106.552394,4.71064937 C107.603053,5.51801091 108.677711,6.30189964 109.677484,7.16385911 C112.710545,9.77922901 115.655908,12.4860827 118.337185,15.4316196 C120.045306,17.3082408 121.757217,19.1915685 123.178877,21.2899347 C124.367849,23.0447208 125.671947,24.7337315 126.774394,26.5355492 C128.180175,28.8329614 129.367884,31.2404293 130.351145,33.7405846 C132.144889,38.3012745 133.056422,42.9964387 132.872636,47.8704434 C132.791434,50.0236654 132.387682,52.134069 131.926276,54.2413772 C131.463156,56.3559938 130.68326,58.3584052 129.870251,60.3640838 C128.859381,62.8577906 127.563945,65.2080811 126.123067,67.4875233 C124.57374,69.9384975 122.898641,72.3120889 120.952328,74.4991874 C119.322792,76.3302387 117.712835,78.179088 116.024112,79.9596684 C114.980401,81.0602252 113.815157,82.0575187 112.686455,83.083186 C111.513994,84.1484906 110.363637,85.2419109 109.125313,86.2343895 C107.034642,87.9101591 104.893084,89.5290952 102.74467,91.1376277 C102.412375,91.3864567 102.273881,91.6192072 102.302572,91.9892694 C102.31367,92.1317399 102.304016,92.2756721 102.304016,92.4190025 C102.304106,106.433217 102.304106,120.447431 102.304196,134.461731 L102.304196,135.558591 C102.383954,135.575701 102.463712,135.592897 102.54347,135.610094 Z" id="Fill-1" fill="#FFFFFF" mask="url(#mask-2)"></path>
                        </g>
                        <path d="M105.017115,169.577594 C106.007258,168.509853 106.826823,167.566523 107.713128,166.684155 C109.055744,165.347271 110.403751,164.01073 111.823887,162.750584 C113.769769,161.023918 115.743767,159.32126 117.782529,157.696198 C120.005163,155.924603 122.308909,154.24518 124.590289,152.541579 C125.907485,151.557865 127.233214,150.58281 128.586341,149.644882 C130.253765,148.489255 131.948497,147.36904 133.641073,146.246682 C135.505394,145.010372 137.359745,143.758544 139.257301,142.570164 C140.904964,141.538263 142.598259,140.571611 144.287151,139.601358 C146.257556,138.469311 148.220955,137.322687 150.232679,136.260776 C151.929297,135.365205 153.689242,134.579211 155.424035,133.750003 C156.520082,133.226035 157.603822,132.674202 158.723224,132.199707 C163.207745,130.298728 167.739694,128.504584 172.615135,127.730251 C174.683719,127.401603 176.791107,127.292368 178.827893,127.977101 C180.702275,128.607216 182.017495,129.837524 182.835712,131.559474 C182.848108,131.585368 182.855653,131.613663 182.869756,131.638699 C184.572302,134.671211 183.721029,137.377905 181.682537,139.913715 C180.439626,141.459895 178.982572,142.827646 177.364012,143.997935 C175.2948,145.494127 173.185525,146.95748 170.980137,148.259811 C168.341164,149.818166 165.628264,151.277661 162.862906,152.621833 C159.831127,154.095561 156.740692,155.473602 153.607321,156.738806 C149.921345,158.227196 146.197014,159.644592 142.424986,160.919399 C137.919894,162.441743 133.362794,163.830758 128.796801,165.180503 C125.943864,166.023859 123.053739,166.775727 120.142416,167.41013 C116.706513,168.158569 113.23477,168.762019 109.768327,169.375158 C108.278128,169.638728 106.759723,169.711094 105.017115,169.577594" id="Fill-4" fill="#FFFFFF"></path>
                        <path d="M94.9094752,169.614118 C93.9377849,169.614118 92.9545632,169.687259 91.9869268,169.600882 C88.6362797,169.301788 85.3441899,168.659078 82.0818292,167.8908 C79.0278422,167.171683 75.976558,166.436237 72.9478858,165.627048 C69.8894845,164.810039 66.8364885,163.961486 63.8246628,163.002235 C60.4716735,161.93426 57.1587733,160.748539 53.8453326,159.570639 C51.4313316,158.712461 49.039222,157.796956 46.6486439,156.88042 C45.6756923,156.507411 44.7261636,156.076646 43.7770854,155.649576 C41.9355943,154.820878 40.0833828,154.011001 38.2697289,153.129274 C36.0296881,152.040242 33.7850527,150.950524 31.6151004,149.742112 C29.366321,148.489696 27.1504238,147.168351 25.021912,145.7394 C23.3372643,144.608599 21.7318942,143.34501 20.2292245,142.000201 C18.8799749,140.792477 17.6772986,139.43598 16.8765054,137.789154 C15.898689,135.778086 15.9194994,133.82486 16.9224503,131.835193 C17.4087459,130.870698 17.9726074,129.996706 18.8104269,129.259111 C20.0140941,128.199387 21.4148741,127.671416 23.0203343,127.533988 C26.2899021,127.253887 29.3967708,127.958479 32.4726491,128.899767 C34.9583603,129.660482 37.3861448,130.551836 39.7752814,131.560851 C42.654047,132.776653 45.4952458,134.055455 48.24987,135.510018 C50.0042458,136.436524 51.7942966,137.303813 53.5227271,138.272003 C55.3568309,139.29941 57.1426475,140.406061 58.9390945,141.493889 C60.6072561,142.504193 62.2621747,143.534522 63.9216877,144.55789 C64.1989789,144.728752 64.4732071,144.904342 64.743021,145.085689 C66.8237861,146.485246 68.9341902,147.846986 70.9756769,149.296908 C73.8595774,151.345105 76.7225776,153.422352 79.53675,155.556582 C81.5985966,157.120297 83.5994535,158.761278 85.5691399,160.43045 C87.5390966,162.09988 89.4845494,163.801196 91.3489228,165.57634 C92.6176337,166.784236 93.7287804,168.142968 94.9059618,169.437755 C94.933799,169.468353 94.9094752,169.541837 94.9094752,169.614118" id="Fill-6" fill="#FFFFFF"></path>
                        <path d="M91.7792631,194.478552 C91.4884283,194.500929 91.1980453,194.535458 90.906849,194.543755 C88.1003561,194.624126 85.3076007,194.437486 82.5277692,194.108289 C79.3651889,193.733668 76.1965534,193.379412 73.0543984,192.885449 C70.0310899,192.410175 67.0228745,191.829386 64.0358977,191.183647 C60.2295585,190.360738 56.4404813,189.463072 52.6656838,188.522916 C50.9255552,188.089629 49.2241985,187.511187 47.527903,186.940791 C45.1285609,186.133889 42.7232538,185.332938 40.3698234,184.420103 C37.6491892,183.364962 35.0082679,182.137009 32.5283994,180.649253 C31.1147144,179.801117 29.7936663,178.819644 28.6995561,177.614822 C27.2952704,176.068316 26.9027608,174.379588 27.6039999,172.392504 C28.4758718,169.921598 30.4434806,168.988481 32.9816426,168.755495 C35.3425743,168.538852 37.6721451,168.843829 39.9699933,169.329411 C43.4614573,170.067423 46.9097209,170.943802 50.2389572,172.189689 C52.7195488,173.118029 55.2460521,173.948648 57.6878717,174.956437 C60.2946303,176.032111 62.832973,177.251934 65.3878549,178.433541 C67.1346715,179.241281 68.8811265,180.053966 70.5870924,180.932188 C72.5593104,181.94752 74.4941122,183.026127 76.4317157,184.098113 C78.1597337,185.054193 79.8977836,185.998372 81.5794379,187.021498 C83.439136,188.153155 85.2587064,189.344232 87.0592976,190.555842 C88.2981021,191.389479 89.484307,192.291335 90.6742173,193.185397 C91.1089331,193.51208 91.48644,193.904049 91.8899756,194.266183 L91.7792631,194.478552 Z" id="Fill-8" fill="#FFFFFF"></path>
                        <path d="M107.036675,194.362397 C107.363555,194.045422 107.660997,193.695523 108.02201,193.416679 C110.170207,191.757558 112.360754,190.149754 114.701467,188.72639 C116.686766,187.519046 118.647955,186.27693 120.648333,185.091844 C121.964431,184.312172 123.318725,183.586002 124.677896,182.872011 C127.031702,181.635691 129.381625,180.39072 131.772544,179.218735 C133.70863,178.269742 135.702778,177.423299 137.670469,176.529991 C138.210362,176.284826 138.737975,176.013709 139.288073,175.790634 C141.849114,174.752193 144.390108,173.664869 146.988803,172.7147 C149.250686,171.887659 151.54941,171.118402 153.887866,170.509481 C156.631038,169.795154 159.382428,169.056385 162.239015,168.79837 C163.738328,168.662896 165.235655,168.61393 166.733794,168.847924 C169.257632,169.242169 170.804804,170.588935 171.458654,172.88713 C171.889196,174.400866 171.647197,175.81222 170.645337,177.023427 C169.90182,177.922027 169.009492,178.739493 168.070841,179.467511 C166.311289,180.83225 164.327073,181.888246 162.25861,182.803979 C161.146044,183.296492 160.066438,183.864678 158.923532,184.284792 C156.049788,185.341207 153.161325,186.365791 150.255255,187.342669 C146.01015,188.769476 141.637906,189.807246 137.252026,190.764386 C133.363239,191.613096 129.447001,192.388148 125.506021,192.985983 C121.000226,193.669487 116.478538,194.324602 111.907095,194.527856 C110.324256,194.598238 108.734915,194.53911 107.148464,194.53911 C107.111261,194.48015 107.073968,194.421273 107.036675,194.362397" id="Fill-10" fill="#FFFFFF"></path>
                        <path d="M94.8517596,220.435369 C94.3566756,220.435369 93.8611477,220.447196 93.3665076,220.433442 C90.1117542,220.343116 86.8806143,220.001525 83.6587955,219.551562 C82.1396325,219.339458 80.6002293,219.241423 79.09598,218.957743 C76.1955175,218.410882 73.3198225,217.736988 70.422112,217.175409 C67.6046517,216.62925 64.8571442,215.840324 62.1350256,214.96265 C59.6958248,214.176177 57.2717153,213.341869 54.8567494,212.485133 C53.9418604,212.160626 53.0670966,211.723278 52.1812363,211.321851 C50.2483048,210.445753 48.3839056,209.448491 46.6292293,208.255684 C45.643056,207.585206 44.8139213,206.744503 44.1169687,205.807341 C42.7873349,204.019401 43.4383921,201.080006 45.4173077,199.998288 C46.3511939,199.487698 47.4432727,199.353305 48.5106727,199.354532 C49.4833525,199.35567 50.4602046,199.432066 51.4277357,199.539826 C54.4104902,199.87213 57.2456162,200.779942 60.0816299,201.7037 C63.5934683,202.847621 66.9867954,204.271893 70.3125668,205.84843 C73.1860424,207.210675 76.019393,208.657112 78.8468845,210.110996 C81.4661158,211.457908 84.0021674,212.94999 86.4480261,214.587154 C88.5718184,216.008798 90.6907282,217.43745 92.8186927,218.852961 C93.3539019,219.209007 93.91956,219.520373 94.4628474,219.864942 C94.629207,219.970424 94.7679584,220.118397 94.9193154,220.24692 C94.8967672,220.309649 94.8743078,220.372553 94.8517596,220.435369" id="Fill-12" fill="#FFFFFF"></path>
                        <path d="M101.987775,220.227186 C102.45912,219.889048 102.923278,219.540137 103.404204,219.215748 C103.86304,218.906248 104.344231,218.629151 104.807237,218.325518 C107.55963,216.520449 110.246196,214.607395 113.077279,212.932204 C116.213455,211.076602 119.453604,209.385121 122.700585,207.721139 C125.05713,206.513439 127.473115,205.409256 129.90773,204.361035 C134.132531,202.54204 138.444184,200.933408 142.961302,199.975393 C144.973455,199.548625 147.027126,199.180623 149.112113,199.441868 C149.782535,199.525942 150.452602,199.665805 151.101111,199.853397 C151.782622,200.050447 152.252192,200.565318 152.61903,201.136764 C153.768426,202.927559 153.920839,204.69278 152.184857,206.542164 C151.181221,207.611579 150.030406,208.448387 148.801166,209.190522 C146.379681,210.652724 143.823615,211.850178 141.145034,212.792167 C139.615847,213.33007 138.132971,214.012128 136.580098,214.465081 C133.441083,215.380884 130.278826,216.224172 127.106721,217.02157 C124.818486,217.596694 122.512598,218.126453 120.189409,218.536581 C117.430806,219.02369 114.649049,219.389678 111.87013,219.755141 C108.910764,220.144425 105.941196,220.446306 102.949006,220.440001 C102.66006,220.439388 102.371114,220.439913 102.082257,220.439913 C102.050763,220.368975 102.01918,220.298124 101.987775,220.227186" id="Fill-14" fill="#FFFFFF"></path>
                    </g>
                </g>
                <g id="Group" transform="translate(0.000000, 389.000000)" fill="#000000" stroke="#000000">
                    <path d="M286.634825,89.8379664 L282.263825,70.1219664 L264.221825,70.1219664 L259.850825,89.8379664 L256.688825,89.8379664 L270.638825,26.9699664 L275.846825,26.9699664 L289.796825,89.8379664 L286.634825,89.8379664 Z M264.872825,67.0529664 L281.612825,67.0529664 L273.242825,29.4809664 L264.872825,67.0529664 Z M305.88146,86.7689664 L325.78346,86.7689664 L325.78346,89.8379664 L302.81246,89.8379664 L302.81246,26.9699664 L305.88146,26.9699664 L305.88146,86.7689664 Z M350.703095,26.9699664 C352.563104,26.9699664 354.314587,27.310963 355.957595,27.9929664 C357.600603,28.6749699 359.026589,29.6204604 360.235595,30.8294664 C361.444601,32.0384725 362.405591,33.4489584 363.118595,35.0609664 C363.831599,36.6729745 364.188095,38.4089571 364.188095,40.2689664 L364.188095,76.5389664 C364.188095,78.3989757 363.831599,80.1349584 363.118595,81.7469664 C362.405591,83.3589745 361.444601,84.7694604 360.235595,85.9784664 C359.026589,87.1874725 357.600603,88.132963 355.957595,88.8149664 C354.314587,89.4969699 352.563104,89.8379664 350.703095,89.8379664 L337.869095,89.8379664 L337.869095,26.9699664 L350.703095,26.9699664 Z M361.026095,40.2689664 C361.026095,38.8429593 360.747098,37.5099726 360.189095,36.2699664 C359.631092,35.0299602 358.8871,33.9449711 357.957095,33.0149664 C357.02709,32.0849618 355.942101,31.3564691 354.702095,30.8294664 C353.462089,30.3024638 352.129102,30.0389664 350.703095,30.0389664 L340.938095,30.0389664 L340.938095,86.7689664 L350.703095,86.7689664 C352.129102,86.7689664 353.462089,86.5054691 354.702095,85.9784664 C355.942101,85.4514638 357.02709,84.7229711 357.957095,83.7929664 C358.8871,82.8629618 359.631092,81.7779726 360.189095,80.5379664 C360.747098,79.2979602 361.026095,77.9649736 361.026095,76.5389664 L361.026095,40.2689664 Z M404.45273,30.1319664 L383.06273,30.1319664 L383.06273,53.8469664 L400.63973,53.8469664 L400.63973,56.9159664 L383.06273,56.9159664 L383.06273,86.7689664 L404.45273,86.7689664 L404.45273,89.8379664 L379.99373,89.8379664 L379.99373,26.9699664 L404.45273,26.9699664 L404.45273,30.1319664 Z M429.093365,63.3329664 L421.467365,63.3329664 L421.467365,89.8379664 L418.398365,89.8379664 L418.398365,26.9699664 L429.744365,26.9699664 C431.604374,26.9699664 433.355857,27.310963 434.998865,27.9929664 C436.641873,28.6749699 438.067859,29.6204604 439.276865,30.8294664 C440.485871,32.0384725 441.446861,33.4489584 442.159865,35.0609664 C442.872869,36.6729745 443.229365,38.4089571 443.229365,40.2689664 L443.229365,50.0339664 C443.229365,51.6459745 442.950368,53.1649593 442.392365,54.5909664 C441.834362,56.0169736 441.05937,57.3189606 440.067365,58.4969664 C439.07536,59.6749723 437.928372,60.6514626 436.626365,61.4264664 C435.324358,62.2014703 433.898373,62.7439649 432.348365,63.0539664 L443.694365,89.8379664 L440.346365,89.8379664 L429.093365,63.3329664 Z M421.467365,60.2639664 L429.744365,60.2639664 C431.170372,60.2639664 432.503359,60.0004691 433.743365,59.4734664 C434.983371,58.9464638 436.06836,58.2179711 436.998365,57.2879664 C437.92837,56.3579618 438.672362,55.2729726 439.230365,54.0329664 C439.788368,52.7929602 440.067365,51.4599736 440.067365,50.0339664 L440.067365,40.2689664 C440.067365,38.9049596 439.788368,37.6029726 439.230365,36.3629664 C438.672362,35.1229602 437.92837,34.0379711 436.998365,33.1079664 C436.06836,32.1779618 434.983371,31.4339692 433.743365,30.8759664 C432.503359,30.3179637 431.170372,30.0389664 429.744365,30.0389664 L421.467365,30.0389664 L421.467365,60.2639664 Z M472.985,87.2339664 C474.411007,87.2339664 475.743994,86.9549692 476.984,86.3969664 C478.224006,85.8389637 479.308995,85.0949711 480.239,84.1649664 C481.169005,83.2349618 481.912997,82.1344728 482.471,80.8634664 C483.029003,79.5924601 483.308,78.2439736 483.308,76.8179664 L486.377,76.8179664 C486.377,78.6779757 486.020504,80.4294582 485.3075,82.0724664 C484.594496,83.7154747 483.633506,85.1414604 482.4245,86.3504664 C481.215494,87.5594725 479.805008,88.5204629 478.193,89.2334664 C476.580992,89.94647 474.845009,90.3029664 472.985,90.3029664 C471.124991,90.3029664 469.373508,89.94647 467.7305,89.2334664 C466.087492,88.5204629 464.661506,87.5594725 463.4525,86.3504664 C462.243494,85.1414604 461.282504,83.7154747 460.5695,82.0724664 C459.856496,80.4294582 459.5,78.6779757 459.5,76.8179664 L459.5,40.0829664 C459.5,38.2229571 459.856496,36.4714747 460.5695,34.8284664 C461.282504,33.1854582 462.243494,31.7594725 463.4525,30.5504664 C464.661506,29.3414604 466.087492,28.38047 467.7305,27.6674664 C469.373508,26.9544629 471.124991,26.5979664 472.985,26.5979664 C474.845009,26.5979664 476.580992,26.9544629 478.193,27.6674664 C479.805008,28.38047 481.215494,29.3414604 482.4245,30.5504664 C483.633506,31.7594725 484.594496,33.1854582 485.3075,34.8284664 C486.020504,36.4714747 486.377,38.2229571 486.377,40.0829664 L483.308,40.0829664 C483.308,38.6569593 483.029003,37.3239726 482.471,36.0839664 C481.912997,34.8439602 481.169005,33.7589711 480.239,32.8289664 C479.308995,31.8989618 478.224006,31.1549692 476.984,30.5969664 C475.743994,30.0389637 474.411007,29.7599664 472.985,29.7599664 C471.558993,29.7599664 470.210506,30.0389637 468.9395,30.5969664 C467.668494,31.1549692 466.568005,31.8989618 465.638,32.8289664 C464.707995,33.7589711 463.964003,34.8439602 463.406,36.0839664 C462.847997,37.3239726 462.569,38.6569593 462.569,40.0829664 L462.569,76.8179664 C462.569,78.2439736 462.847997,79.5924601 463.406,80.8634664 C463.964003,82.1344728 464.707995,83.2349618 465.638,84.1649664 C466.568005,85.0949711 467.668494,85.8389637 468.9395,86.3969664 C470.210506,86.9549692 471.558993,87.2339664 472.985,87.2339664 Z M512.877635,63.3329664 L505.251635,63.3329664 L505.251635,89.8379664 L502.182635,89.8379664 L502.182635,26.9699664 L513.528635,26.9699664 C515.388644,26.9699664 517.140127,27.310963 518.783135,27.9929664 C520.426143,28.6749699 521.852129,29.6204604 523.061135,30.8294664 C524.270141,32.0384725 525.231131,33.4489584 525.944135,35.0609664 C526.657139,36.6729745 527.013635,38.4089571 527.013635,40.2689664 L527.013635,50.0339664 C527.013635,51.6459745 526.734638,53.1649593 526.176635,54.5909664 C525.618632,56.0169736 524.84364,57.3189606 523.851635,58.4969664 C522.85963,59.6749723 521.712642,60.6514626 520.410635,61.4264664 C519.108628,62.2014703 517.682643,62.7439649 516.132635,63.0539664 L527.478635,89.8379664 L524.130635,89.8379664 L512.877635,63.3329664 Z M505.251635,60.2639664 L513.528635,60.2639664 C514.954642,60.2639664 516.287629,60.0004691 517.527635,59.4734664 C518.767641,58.9464638 519.85263,58.2179711 520.782635,57.2879664 C521.71264,56.3579618 522.456632,55.2729726 523.014635,54.0329664 C523.572638,52.7929602 523.851635,51.4599736 523.851635,50.0339664 L523.851635,40.2689664 C523.851635,38.9049596 523.572638,37.6029726 523.014635,36.3629664 C522.456632,35.1229602 521.71264,34.0379711 520.782635,33.1079664 C519.85263,32.1779618 518.767641,31.4339692 517.527635,30.8759664 C516.287629,30.3179637 514.954642,30.0389664 513.528635,30.0389664 L505.251635,30.0389664 L505.251635,60.2639664 Z M567.74327,30.1319664 L546.35327,30.1319664 L546.35327,53.8469664 L563.93027,53.8469664 L563.93027,56.9159664 L546.35327,56.9159664 L546.35327,86.7689664 L567.74327,86.7689664 L567.74327,89.8379664 L543.28427,89.8379664 L543.28427,26.9699664 L567.74327,26.9699664 L567.74327,30.1319664 Z M595.359905,56.6369664 C596.909913,57.8769726 598.444397,59.1634598 599.963405,60.4964664 C601.482413,61.8294731 602.846399,63.2864585 604.055405,64.8674664 C605.264411,66.4484743 606.240901,68.2154567 606.984905,70.1684664 C607.728909,72.1214762 608.100905,74.337954 608.100905,76.8179664 C608.100905,78.6779757 607.744409,80.4294582 607.031405,82.0724664 C606.318401,83.7154747 605.357411,85.1414604 604.148405,86.3504664 C602.939399,87.5594725 601.528913,88.5204629 599.916905,89.2334664 C598.304897,89.94647 596.568914,90.3029664 594.708905,90.3029664 C592.848896,90.3029664 591.097413,89.94647 589.454405,89.2334664 C587.811397,88.5204629 586.385411,87.5594725 585.176405,86.3504664 C583.967399,85.1414604 583.006409,83.7154747 582.293405,82.0724664 C581.580401,80.4294582 581.223905,78.6779757 581.223905,76.8179664 L584.292905,76.8179664 C584.292905,78.2439736 584.571902,79.5924601 585.129905,80.8634664 C585.687908,82.1344728 586.4319,83.2349618 587.361905,84.1649664 C588.29191,85.0949711 589.392399,85.8389637 590.663405,86.3969664 C591.934411,86.9549692 593.282898,87.2339664 594.708905,87.2339664 C596.134912,87.2339664 597.467899,86.9549692 598.707905,86.3969664 C599.947911,85.8389637 601.0329,85.0949711 601.962905,84.1649664 C602.89291,83.2349618 603.636902,82.1344728 604.194905,80.8634664 C604.752908,79.5924601 605.031905,78.2439736 605.031905,76.8179664 C605.031905,74.7099559 604.706408,72.8189748 604.055405,71.1449664 C603.404402,69.4709581 602.53641,67.9364734 601.451405,66.5414664 C600.3664,65.1464595 599.126412,63.8444725 597.731405,62.6354664 C596.336398,61.4264604 594.894912,60.2329723 593.406905,59.0549664 C591.918898,57.8769606 590.446412,56.6524728 588.989405,55.3814664 C587.532398,54.1104601 586.230411,52.7309739 585.083405,51.2429664 C583.936399,49.754959 583.006409,48.1119754 582.293405,46.3139664 C581.580401,44.5159575 581.223905,42.4389782 581.223905,40.0829664 C581.223905,38.2229571 581.580401,36.4714747 582.293405,34.8284664 C583.006409,33.1854582 583.967399,31.7594725 585.176405,30.5504664 C586.385411,29.3414604 587.811397,28.38047 589.454405,27.6674664 C591.097413,26.9544629 592.848896,26.5979664 594.708905,26.5979664 C596.568914,26.5979664 598.304897,26.9544629 599.916905,27.6674664 C601.528913,28.38047 602.939399,29.3414604 604.148405,30.5504664 C605.357411,31.7594725 606.318401,33.1854582 607.031405,34.8284664 C607.744409,36.4714747 608.100905,38.2229571 608.100905,40.0829664 L605.031905,40.0829664 C605.031905,38.6569593 604.752908,37.3239726 604.194905,36.0839664 C603.636902,34.8439602 602.89291,33.7589711 601.962905,32.8289664 C601.0329,31.8989618 599.947911,31.1549692 598.707905,30.5969664 C597.467899,30.0389637 596.134912,29.7599664 594.708905,29.7599664 C593.282898,29.7599664 591.934411,30.0389637 590.663405,30.5969664 C589.392399,31.1549692 588.29191,31.8989618 587.361905,32.8289664 C586.4319,33.7589711 585.687908,34.8439602 585.129905,36.0839664 C584.571902,37.3239726 584.292905,38.6569593 584.292905,40.0829664 C584.292905,42.0669764 584.602902,43.8184588 585.222905,45.3374664 C585.842908,46.856474 586.6644,48.2669599 587.687405,49.5689664 C588.71041,50.870973 589.888398,52.0954607 591.221405,53.2424664 C592.554412,54.3894722 593.933898,55.5209609 595.359905,56.6369664 Z M647.43554,26.9699664 L647.43554,30.1319664 L634.88054,30.1319664 L634.88054,89.8379664 L631.81154,89.8379664 L631.81154,30.1319664 L619.25654,30.1319664 L619.25654,26.9699664 L647.43554,26.9699664 Z" id="ALDERCREST"></path>
                    <path d="M272.773034,106.367114 L274.269034,106.367114 L274.269034,136.111114 L272.817034,136.111114 L272.817034,110.503114 L265.469034,130.699114 L258.077034,110.503114 L258.077034,136.111114 L256.625034,136.111114 L256.625034,106.367114 L258.121034,106.367114 L265.469034,126.431114 L272.773034,106.367114 Z M299.618774,136.111114 L297.550774,126.783114 L289.014774,126.783114 L286.946774,136.111114 L285.450774,136.111114 L292.050774,106.367114 L294.514774,106.367114 L301.114774,136.111114 L299.618774,136.111114 Z M289.322774,125.331114 L297.242774,125.331114 L293.282774,107.555114 L289.322774,125.331114 Z M318.544514,120.403114 C319.277851,120.989784 320.003844,121.598444 320.722514,122.229114 C321.441184,122.859784 322.086511,123.54911 322.658514,124.297114 C323.230517,125.045118 323.692512,125.881109 324.044514,126.805114 C324.396516,127.729119 324.572514,128.777775 324.572514,129.951114 C324.572514,130.831118 324.403849,131.659777 324.066514,132.437114 C323.729179,133.214451 323.274517,133.889111 322.702514,134.461114 C322.130511,135.033117 321.463185,135.487779 320.700514,135.825114 C319.937844,136.162449 319.116519,136.331114 318.236514,136.331114 C317.35651,136.331114 316.527851,136.162449 315.750514,135.825114 C314.973177,135.487779 314.298517,135.033117 313.726514,134.461114 C313.154511,133.889111 312.699849,133.214451 312.362514,132.437114 C312.025179,131.659777 311.856514,130.831118 311.856514,129.951114 L313.308514,129.951114 C313.308514,130.625784 313.440513,131.263778 313.704514,131.865114 C313.968515,132.46645 314.320512,132.987112 314.760514,133.427114 C315.200516,133.867116 315.721178,134.219113 316.322514,134.483114 C316.923851,134.747115 317.561844,134.879114 318.236514,134.879114 C318.911184,134.879114 319.541845,134.747115 320.128514,134.483114 C320.715184,134.219113 321.228512,133.867116 321.668514,133.427114 C322.108516,132.987112 322.460513,132.46645 322.724514,131.865114 C322.988515,131.263778 323.120514,130.625784 323.120514,129.951114 C323.120514,128.953776 322.966516,128.059118 322.658514,127.267114 C322.350513,126.47511 321.93985,125.749117 321.426514,125.089114 C320.913178,124.429111 320.326517,123.813117 319.666514,123.241114 C319.006511,122.669111 318.324518,122.10445 317.620514,121.547114 C316.916511,120.989778 316.219851,120.41045 315.530514,119.809114 C314.841177,119.207778 314.225184,118.555118 313.682514,117.851114 C313.139845,117.147111 312.699849,116.369785 312.362514,115.519114 C312.025179,114.668443 311.856514,113.685786 311.856514,112.571114 C311.856514,111.69111 312.025179,110.862451 312.362514,110.085114 C312.699849,109.307777 313.154511,108.633117 313.726514,108.061114 C314.298517,107.489111 314.973177,107.034449 315.750514,106.697114 C316.527851,106.359779 317.35651,106.191114 318.236514,106.191114 C319.116519,106.191114 319.937844,106.359779 320.700514,106.697114 C321.463185,107.034449 322.130511,107.489111 322.702514,108.061114 C323.274517,108.633117 323.729179,109.307777 324.066514,110.085114 C324.403849,110.862451 324.572514,111.69111 324.572514,112.571114 L323.120514,112.571114 C323.120514,111.896444 322.988515,111.265784 322.724514,110.679114 C322.460513,110.092444 322.108516,109.579116 321.668514,109.139114 C321.228512,108.699112 320.715184,108.347115 320.128514,108.083114 C319.541845,107.819113 318.911184,107.687114 318.236514,107.687114 C317.561844,107.687114 316.923851,107.819113 316.322514,108.083114 C315.721178,108.347115 315.200516,108.699112 314.760514,109.139114 C314.320512,109.579116 313.968515,110.092444 313.704514,110.679114 C313.440513,111.265784 313.308514,111.896444 313.308514,112.571114 C313.308514,113.509785 313.455179,114.338444 313.748514,115.057114 C314.041849,115.775784 314.430512,116.443111 314.914514,117.059114 C315.398517,117.675117 315.955844,118.254445 316.586514,118.797114 C317.217184,119.339783 317.869844,119.875111 318.544514,120.403114 Z M343.322254,120.403114 C344.055591,120.989784 344.781584,121.598444 345.500254,122.229114 C346.218924,122.859784 346.864251,123.54911 347.436254,124.297114 C348.008257,125.045118 348.470252,125.881109 348.822254,126.805114 C349.174256,127.729119 349.350254,128.777775 349.350254,129.951114 C349.350254,130.831118 349.181589,131.659777 348.844254,132.437114 C348.506919,133.214451 348.052257,133.889111 347.480254,134.461114 C346.908251,135.033117 346.240925,135.487779 345.478254,135.825114 C344.715584,136.162449 343.894259,136.331114 343.014254,136.331114 C342.13425,136.331114 341.305591,136.162449 340.528254,135.825114 C339.750917,135.487779 339.076257,135.033117 338.504254,134.461114 C337.932251,133.889111 337.477589,133.214451 337.140254,132.437114 C336.802919,131.659777 336.634254,130.831118 336.634254,129.951114 L338.086254,129.951114 C338.086254,130.625784 338.218253,131.263778 338.482254,131.865114 C338.746255,132.46645 339.098252,132.987112 339.538254,133.427114 C339.978256,133.867116 340.498918,134.219113 341.100254,134.483114 C341.701591,134.747115 342.339584,134.879114 343.014254,134.879114 C343.688924,134.879114 344.319585,134.747115 344.906254,134.483114 C345.492924,134.219113 346.006252,133.867116 346.446254,133.427114 C346.886256,132.987112 347.238253,132.46645 347.502254,131.865114 C347.766255,131.263778 347.898254,130.625784 347.898254,129.951114 C347.898254,128.953776 347.744256,128.059118 347.436254,127.267114 C347.128253,126.47511 346.71759,125.749117 346.204254,125.089114 C345.690918,124.429111 345.104257,123.813117 344.444254,123.241114 C343.784251,122.669111 343.102258,122.10445 342.398254,121.547114 C341.694251,120.989778 340.997591,120.41045 340.308254,119.809114 C339.618917,119.207778 339.002924,118.555118 338.460254,117.851114 C337.917585,117.147111 337.477589,116.369785 337.140254,115.519114 C336.802919,114.668443 336.634254,113.685786 336.634254,112.571114 C336.634254,111.69111 336.802919,110.862451 337.140254,110.085114 C337.477589,109.307777 337.932251,108.633117 338.504254,108.061114 C339.076257,107.489111 339.750917,107.034449 340.528254,106.697114 C341.305591,106.359779 342.13425,106.191114 343.014254,106.191114 C343.894259,106.191114 344.715584,106.359779 345.478254,106.697114 C346.240925,107.034449 346.908251,107.489111 347.480254,108.061114 C348.052257,108.633117 348.506919,109.307777 348.844254,110.085114 C349.181589,110.862451 349.350254,111.69111 349.350254,112.571114 L347.898254,112.571114 C347.898254,111.896444 347.766255,111.265784 347.502254,110.679114 C347.238253,110.092444 346.886256,109.579116 346.446254,109.139114 C346.006252,108.699112 345.492924,108.347115 344.906254,108.083114 C344.319585,107.819113 343.688924,107.687114 343.014254,107.687114 C342.339584,107.687114 341.701591,107.819113 341.100254,108.083114 C340.498918,108.347115 339.978256,108.699112 339.538254,109.139114 C339.098252,109.579116 338.746255,110.092444 338.482254,110.679114 C338.218253,111.265784 338.086254,111.896444 338.086254,112.571114 C338.086254,113.509785 338.232919,114.338444 338.526254,115.057114 C338.819589,115.775784 339.208252,116.443111 339.692254,117.059114 C340.176257,117.675117 340.733584,118.254445 341.364254,118.797114 C341.994924,119.339783 342.647584,119.875111 343.322254,120.403114 Z M374.479994,136.111114 L372.411994,126.783114 L363.875994,126.783114 L361.807994,136.111114 L360.311994,136.111114 L366.911994,106.367114 L369.375994,106.367114 L375.975994,136.111114 L374.479994,136.111114 Z M364.183994,125.331114 L372.103994,125.331114 L368.143994,107.555114 L364.183994,125.331114 Z M391.997734,119.347114 L399.433734,119.347114 L399.433734,130.435114 C399.375067,131.256452 399.169736,132.026444 398.817734,132.745114 C398.465732,133.463784 398.003737,134.087111 397.431734,134.615114 C396.859731,135.143117 396.199738,135.561113 395.451734,135.869114 C394.70373,136.177116 393.919072,136.331114 393.097734,136.331114 C392.21773,136.331114 391.389071,136.162449 390.611734,135.825114 C389.834397,135.487779 389.159737,135.033117 388.587734,134.461114 C388.015731,133.889111 387.561069,133.214451 387.223734,132.437114 C386.886399,131.659777 386.717734,130.831118 386.717734,129.951114 L386.717734,112.571114 C386.717734,111.69111 386.886399,110.862451 387.223734,110.085114 C387.561069,109.307777 388.015731,108.633117 388.587734,108.061114 C389.159737,107.489111 389.834397,107.034449 390.611734,106.697114 C391.389071,106.359779 392.21773,106.191114 393.097734,106.191114 C393.977739,106.191114 394.799064,106.359779 395.561734,106.697114 C396.324405,107.034449 396.991731,107.489111 397.563734,108.061114 C398.135737,108.633117 398.590399,109.307777 398.927734,110.085114 C399.265069,110.862451 399.433734,111.69111 399.433734,112.571114 L397.981734,112.571114 C397.981734,111.896444 397.849735,111.265784 397.585734,110.679114 C397.321733,110.092444 396.969736,109.579116 396.529734,109.139114 C396.089732,108.699112 395.576404,108.347115 394.989734,108.083114 C394.403065,107.819113 393.772404,107.687114 393.097734,107.687114 C392.423064,107.687114 391.785071,107.819113 391.183734,108.083114 C390.582398,108.347115 390.061736,108.699112 389.621734,109.139114 C389.181732,109.579116 388.829735,110.092444 388.565734,110.679114 C388.301733,111.265784 388.169734,111.896444 388.169734,112.571114 L388.169734,129.951114 C388.169734,130.625784 388.301733,131.263778 388.565734,131.865114 C388.829735,132.46645 389.181732,132.987112 389.621734,133.427114 C390.061736,133.867116 390.582398,134.219113 391.183734,134.483114 C391.785071,134.747115 392.423064,134.879114 393.097734,134.879114 C393.772404,134.879114 394.403065,134.747115 394.989734,134.483114 C395.576404,134.219113 396.089732,133.867116 396.529734,133.427114 C396.969736,132.987112 397.321733,132.46645 397.585734,131.865114 C397.849735,131.263778 397.981734,130.625784 397.981734,129.951114 L397.981734,120.799114 L391.997734,120.799114 L391.997734,119.347114 Z M423.067474,107.863114 L412.947474,107.863114 L412.947474,119.083114 L421.263474,119.083114 L421.263474,120.535114 L412.947474,120.535114 L412.947474,134.659114 L423.067474,134.659114 L423.067474,136.111114 L411.495474,136.111114 L411.495474,106.367114 L423.067474,106.367114 L423.067474,107.863114 Z M465.318954,121.327114 L465.318954,122.779114 L458.410954,122.779114 L458.410954,129.687114 L456.958954,129.687114 L456.958954,122.779114 L450.050954,122.779114 L450.050954,121.327114 L456.958954,121.327114 L456.958954,114.419114 L458.410954,114.419114 L458.410954,121.327114 L465.318954,121.327114 Z M504.754434,107.863114 L494.634434,107.863114 L494.634434,119.083114 L502.950434,119.083114 L502.950434,120.535114 L494.634434,120.535114 L494.634434,136.111114 L493.182434,136.111114 L493.182434,106.367114 L504.754434,106.367114 L504.754434,107.863114 Z M529.224174,136.111114 L527.156174,126.783114 L518.620174,126.783114 L516.552174,136.111114 L515.056174,136.111114 L521.656174,106.367114 L524.120174,106.367114 L530.720174,136.111114 L529.224174,136.111114 Z M518.928174,125.331114 L526.848174,125.331114 L522.888174,107.555114 L518.928174,125.331114 Z M547.841914,134.879114 C548.516584,134.879114 549.147245,134.747115 549.733914,134.483114 C550.320584,134.219113 550.833912,133.867116 551.273914,133.427114 C551.713916,132.987112 552.065913,132.46645 552.329914,131.865114 C552.593915,131.263778 552.725914,130.625784 552.725914,129.951114 L554.177914,129.951114 C554.177914,130.831118 554.009249,131.659777 553.671914,132.437114 C553.334579,133.214451 552.879917,133.889111 552.307914,134.461114 C551.735911,135.033117 551.068585,135.487779 550.305914,135.825114 C549.543244,136.162449 548.721919,136.331114 547.841914,136.331114 C546.96191,136.331114 546.133251,136.162449 545.355914,135.825114 C544.578577,135.487779 543.903917,135.033117 543.331914,134.461114 C542.759911,133.889111 542.305249,133.214451 541.967914,132.437114 C541.630579,131.659777 541.461914,130.831118 541.461914,129.951114 L541.461914,112.571114 C541.461914,111.69111 541.630579,110.862451 541.967914,110.085114 C542.305249,109.307777 542.759911,108.633117 543.331914,108.061114 C543.903917,107.489111 544.578577,107.034449 545.355914,106.697114 C546.133251,106.359779 546.96191,106.191114 547.841914,106.191114 C548.721919,106.191114 549.543244,106.359779 550.305914,106.697114 C551.068585,107.034449 551.735911,107.489111 552.307914,108.061114 C552.879917,108.633117 553.334579,109.307777 553.671914,110.085114 C554.009249,110.862451 554.177914,111.69111 554.177914,112.571114 L552.725914,112.571114 C552.725914,111.896444 552.593915,111.265784 552.329914,110.679114 C552.065913,110.092444 551.713916,109.579116 551.273914,109.139114 C550.833912,108.699112 550.320584,108.347115 549.733914,108.083114 C549.147245,107.819113 548.516584,107.687114 547.841914,107.687114 C547.167244,107.687114 546.529251,107.819113 545.927914,108.083114 C545.326578,108.347115 544.805916,108.699112 544.365914,109.139114 C543.925912,109.579116 543.573915,110.092444 543.309914,110.679114 C543.045913,111.265784 542.913914,111.896444 542.913914,112.571114 L542.913914,129.951114 C542.913914,130.625784 543.045913,131.263778 543.309914,131.865114 C543.573915,132.46645 543.925912,132.987112 544.365914,133.427114 C544.805916,133.867116 545.326578,134.219113 545.927914,134.483114 C546.529251,134.747115 547.167244,134.879114 547.841914,134.879114 Z M567.691654,136.111114 L566.239654,136.111114 L566.239654,106.367114 L567.691654,106.367114 L567.691654,136.111114 Z M593.041394,136.111114 L590.973394,126.783114 L582.437394,126.783114 L580.369394,136.111114 L578.873394,136.111114 L585.473394,106.367114 L587.937394,106.367114 L594.537394,136.111114 L593.041394,136.111114 Z M582.745394,125.331114 L590.665394,125.331114 L586.705394,107.555114 L582.745394,125.331114 Z M606.731134,134.659114 L616.147134,134.659114 L616.147134,136.111114 L605.279134,136.111114 L605.279134,106.367114 L606.731134,106.367114 L606.731134,134.659114 Z M633.136874,120.403114 C633.870211,120.989784 634.596204,121.598444 635.314874,122.229114 C636.033544,122.859784 636.678871,123.54911 637.250874,124.297114 C637.822877,125.045118 638.284872,125.881109 638.636874,126.805114 C638.988876,127.729119 639.164874,128.777775 639.164874,129.951114 C639.164874,130.831118 638.996209,131.659777 638.658874,132.437114 C638.321539,133.214451 637.866877,133.889111 637.294874,134.461114 C636.722871,135.033117 636.055545,135.487779 635.292874,135.825114 C634.530204,136.162449 633.708879,136.331114 632.828874,136.331114 C631.94887,136.331114 631.120211,136.162449 630.342874,135.825114 C629.565537,135.487779 628.890877,135.033117 628.318874,134.461114 C627.746871,133.889111 627.292209,133.214451 626.954874,132.437114 C626.617539,131.659777 626.448874,130.831118 626.448874,129.951114 L627.900874,129.951114 C627.900874,130.625784 628.032873,131.263778 628.296874,131.865114 C628.560875,132.46645 628.912872,132.987112 629.352874,133.427114 C629.792876,133.867116 630.313538,134.219113 630.914874,134.483114 C631.516211,134.747115 632.154204,134.879114 632.828874,134.879114 C633.503544,134.879114 634.134205,134.747115 634.720874,134.483114 C635.307544,134.219113 635.820872,133.867116 636.260874,133.427114 C636.700876,132.987112 637.052873,132.46645 637.316874,131.865114 C637.580875,131.263778 637.712874,130.625784 637.712874,129.951114 C637.712874,128.953776 637.558876,128.059118 637.250874,127.267114 C636.942873,126.47511 636.53221,125.749117 636.018874,125.089114 C635.505538,124.429111 634.918877,123.813117 634.258874,123.241114 C633.598871,122.669111 632.916878,122.10445 632.212874,121.547114 C631.508871,120.989778 630.812211,120.41045 630.122874,119.809114 C629.433537,119.207778 628.817544,118.555118 628.274874,117.851114 C627.732205,117.147111 627.292209,116.369785 626.954874,115.519114 C626.617539,114.668443 626.448874,113.685786 626.448874,112.571114 C626.448874,111.69111 626.617539,110.862451 626.954874,110.085114 C627.292209,109.307777 627.746871,108.633117 628.318874,108.061114 C628.890877,107.489111 629.565537,107.034449 630.342874,106.697114 C631.120211,106.359779 631.94887,106.191114 632.828874,106.191114 C633.708879,106.191114 634.530204,106.359779 635.292874,106.697114 C636.055545,107.034449 636.722871,107.489111 637.294874,108.061114 C637.866877,108.633117 638.321539,109.307777 638.658874,110.085114 C638.996209,110.862451 639.164874,111.69111 639.164874,112.571114 L637.712874,112.571114 C637.712874,111.896444 637.580875,111.265784 637.316874,110.679114 C637.052873,110.092444 636.700876,109.579116 636.260874,109.139114 C635.820872,108.699112 635.307544,108.347115 634.720874,108.083114 C634.134205,107.819113 633.503544,107.687114 632.828874,107.687114 C632.154204,107.687114 631.516211,107.819113 630.914874,108.083114 C630.313538,108.347115 629.792876,108.699112 629.352874,109.139114 C628.912872,109.579116 628.560875,110.092444 628.296874,110.679114 C628.032873,111.265784 627.900874,111.896444 627.900874,112.571114 C627.900874,113.509785 628.047539,114.338444 628.340874,115.057114 C628.634209,115.775784 629.022872,116.443111 629.506874,117.059114 C629.990877,117.675117 630.548204,118.254445 631.178874,118.797114 C631.809544,119.339783 632.462204,119.875111 633.136874,120.403114 Z" id="MASSAGE-+-FACIALS"></path>
                </g>
            </g>
        </g>
    </g>
</svg>