<svg xmlns="http://www.w3.org/2000/svg" xmlns:xlink="http://www.w3.org/1999/xlink" width="950" height="537"><defs><path id="a" d="M0 .005h249.897v284.834H0z"/></defs><g fill="none" fill-rule="evenodd"><path fill="#000" d="M475.5 24 733 513H218z"/><g transform="matrix(1 0 0 -1 351 478)"><mask id="b" fill="#fff"><use xlink:href="#a"/></mask><path fill="#FFF" d="M121.86 8.932c-4.57 3.748-8.994 7.406-13.069 11.56 2.18 2.08 4.365 4.082 6.449 6.176 1.958 1.967 6.022 5.742 6.62 5.983V8.932Zm99.383 53.824c-.25 2.1-.146 16.648.147 17.417l17.52-16.695c-2.307-.548-14.597-1.051-17.667-.722Zm21.993 5.005-17.49 16.529c1.106.205 17.392.163 18.19-.06.285-2.922-.268-15.065-.7-16.469ZM28.63 63.551c-5.967-.253-11.782.265-17.658.531.492.874 16.831 16.43 17.658 16.836V63.551ZM6.734 68.305l-.24.147c-.418 5.538-.895 11.075-.665 16.683h18.568L6.734 68.305ZM128.057 9c-.257 1.01-.238 22.85.046 23.796l12.94-12.309c-4.077-4.164-8.521-7.81-12.986-11.487Zm115.57 81.147c-.433-.025-.797-.065-1.16-.066-7.33-.003-14.66.006-21.991-.016-.742-.002-1.3.226-1.796.708-1.077 1.045-2.165 2.079-3.244 3.12-2.37 2.29-4.724 4.594-7.109 6.87-2.385 2.275-4.803 4.518-7.197 6.785-.84.794-1.65 1.614-2.602 2.547h40.339c2.722-6.422 4.031-13.066 4.76-19.948ZM55.369 106.675l.214-.075V68.205c-6.782-2.285-13.643-3.988-20.97-4.341v11.289c0 3.647.005 7.294-.007 10.942-.001.483.07.882.464 1.25 1.85 1.725 3.67 3.478 5.5 5.221 3.079 2.93 6.159 5.86 9.235 8.792 1.857 1.77 3.71 3.545 5.564 5.317Zm66.271-37.457.284-.083V56.942c0-5.043-.008-10.085.011-15.127.002-.62-.105-1.125-.7-1.459-.127-.07-.231-.181-.337-.282-2.703-2.574-5.408-5.147-8.104-7.727-1.083-1.037-2.14-2.1-3.221-3.138-1.369-1.315-2.75-2.617-4.168-3.965-1.232.893-2.527 1.555-3.388 2.736-.706.966-1.475 1.892-2.166 2.867-1.932 2.725-3.724 5.53-5.257 8.481-.349.672-.743 1.325-1.067 2.008-.344.725-.281.871.297 1.406 1.532 1.419 3.074 2.827 4.583 4.268 2.116 2.02 4.192 4.08 6.312 6.098 2.306 2.194 4.654 4.35 6.964 6.54 1.407 1.335 2.763 2.719 4.168 4.056 1.43 1.362 2.9 2.689 4.34 4.043.502.472.967.98 1.45 1.47Zm23.415-44.431c-.815.746-1.634 1.478-2.432 2.23a4054.985 4054.985 0 0 0-9.822 9.278c-1.407 1.335-2.757 2.726-4.201 4.023-.517.463-.736.905-.733 1.568.026 4.076.013 8.153.013 12.23 0 4.648-.002 9.297.004 13.945 0 .36.05.72.077 1.08.514-.228.786-.51 1.066-.782.55-.537 1.103-1.071 1.659-1.603 1.32-1.263 2.64-2.525 3.964-3.785 1.458-1.388 2.92-2.772 4.379-4.159 1.272-1.208 2.544-2.417 3.815-3.627 1.484-1.413 2.964-2.831 4.453-4.24 1.196-1.13 2.409-2.244 3.604-3.376 1.647-1.558 3.271-3.139 4.933-4.682.692-.643.824-.841.386-1.671-1.025-1.946-2.016-3.916-3.176-5.788-2.328-3.754-4.966-7.31-7.989-10.641Zm49.115 42.71v38.46c.491-.43.932-.791 1.346-1.179 2.434-2.276 4.874-4.546 7.288-6.842 2.147-2.043 4.257-4.122 6.394-6.176 1.768-1.698 3.528-3.405 5.34-5.06.55-.501.693-1.028.691-1.707-.016-6.939-.01-13.878-.01-20.816v-1.032c-3.88-.317-17.02 2.413-21.05 4.351ZM51.466 110.951c-.42-.418-.686-.694-.963-.958-2.865-2.73-5.732-5.458-8.599-8.187-3.634-3.46-7.274-6.916-10.897-10.388-.424-.407-.85-.604-1.472-.602-7.479.019-14.957.011-22.435.016-.287 0-.573.051-.934.086.75 6.925 2.051 13.642 4.792 20.033h40.508Zm10.176-40.338v3.253c0 12.56.001 25.12-.003 37.68 0 .613.039 1.142.567 1.642 6.956 6.584 13.886 13.195 20.825 19.795.194.184.43.328.817.62.217-3.845.479-7.484.615-11.127.285-7.65-.482-15.219-2.127-22.706-.686-3.122-1.803-6.131-3.023-9.088a38.941 38.941 0 0 0-4.04-7.408c-.372-.535-.718-1.093-1.143-1.589-1.28-1.49-2.507-3.038-3.92-4.408-1.36-1.32-2.903-2.474-4.412-3.646-1.272-.99-2.61-1.901-4.156-3.018Zm174.734 45.16h-42.633c-.188 0-.377.013-.564-.003-.444-.038-.757.11-1.074.436a99.286 99.286 0 0 1-3.063 2.989c-2.342 2.211-4.707 4.4-7.042 6.62-1.353 1.286-2.647 2.627-3.999 3.915-2.332 2.221-4.689 4.419-7.029 6.633-.135.128-.207.317-.36.56 2.45.162 4.766.332 7.083.465 6.84.395 13.665.252 20.462-.62 3.722-.477 7.412-1.144 11.019-2.134a55.576 55.576 0 0 0 6.146-2.078c2.304-.934 4.609-1.92 6.759-3.13a36.94 36.94 0 0 0 6.3-4.48c1.635-1.44 3.08-3.018 4.486-4.641 1.001-1.156 1.924-2.374 2.873-3.57.193-.244.344-.517.636-.962ZM90.753 47.899c-.127.95-.244 1.722-.333 2.498-.263 2.308-.664 4.613-.741 6.928-.209 6.265 1.393 12.195 4.085 17.865 1.765 3.718 3.965 7.206 6.441 10.542 2.3 3.098 4.783 6.058 7.507 8.816 2.282 2.312 4.706 4.5 7.132 6.68 2.045 1.836 4.181 3.582 6.283 5.361.202.172.449.296.797.522V78.615c0-.286.03-.577-.014-.857a1.074 1.074 0 0 0-.257-.555 44.296 44.296 0 0 0-1.713-1.699c-1.416-1.328-2.86-2.629-4.263-3.97-2.41-2.3-4.787-4.632-7.195-6.935-1.27-1.214-2.586-2.384-3.864-3.59-1.785-1.682-3.556-3.38-5.329-5.073-1.059-1.012-2.111-2.029-3.165-3.045-1.556-1.498-3.109-3-4.67-4.495-.154-.147-.353-.253-.701-.497Zm-77.25 68.747c.384.57.598.944.866 1.277.616.766 1.304 1.482 1.88 2.273 1.482 2.036 3.22 3.843 5.117 5.53 1.624 1.445 3.353 2.767 5.24 3.861 1.98 1.148 3.986 2.249 6.128 3.148 3.174 1.332 6.436 2.347 9.774 3.203 6.17 1.584 12.48 2.103 18.831 2.345 5.792.221 11.563-.213 17.338-.522.21-.012.417-.075.765-.14-.366-.368-.636-.654-.921-.926-6.768-6.455-13.546-12.9-20.291-19.377-.532-.51-1.05-.683-1.768-.683-13.864.014-27.727.01-41.591.01h-1.367Zm152.522 16.052c.337-.205.575-.301.746-.461 1.07-1 2.133-2.01 3.185-3.027 1.421-1.374 2.816-2.773 4.25-4.134 2.15-2.041 4.341-4.045 6.488-6.09 2.306-2.196 4.569-4.435 6.882-6.625.473-.447.618-.906.617-1.516-.014-13.345-.01-26.69-.013-40.034 0-.269-.03-.538-.058-1.019-.563.415-.97.71-1.37 1.01-.442.333-.873.678-1.318 1.006-1.393 1.026-2.877 1.958-4.17 3.089-2.406 2.105-4.541 4.44-6.367 7.047-1.824 2.604-3.354 5.348-4.523 8.25-1.301 3.231-2.426 6.516-3.119 9.942-1.004 4.963-1.665 9.947-1.884 14.998-.202 4.657.057 9.296.36 13.937.075 1.167.188 2.331.294 3.627Zm-6.95-84.842c-.402.31-.737.524-1.015.79-.66.635-1.274 1.311-1.94 1.94-2.155 2.033-4.338 4.04-6.486 6.08-1.54 1.462-3.023 2.977-4.563 4.438-2.335 2.217-4.708 4.397-7.045 6.612-1.353 1.284-2.652 2.62-4.003 3.906-1.432 1.362-2.903 2.685-4.343 4.039-.586.55-1.354 1.053-1.64 1.73-.302.715-.155 1.612-.156 2.429-.007 8.655-.006 17.31.003 25.966 0 .394-.128.828.197 1.26.484-.388.916-.722 1.334-1.072 1.688-1.416 3.39-2.818 5.052-4.262a111.136 111.136 0 0 0 3.56-3.268c1.512-1.436 3.035-2.864 4.484-4.356a64.57 64.57 0 0 0 3.496-3.909c1.6-1.939 3.23-3.867 4.655-5.92 1.465-2.109 2.719-4.352 4.03-6.555 1.75-2.937 3.017-6.082 3.952-9.318 1.425-4.936 1.968-9.966 1.171-15.078-.274-1.76-.482-3.529-.742-5.452Zm-30.896 121.48c.48-.49.94-1 1.442-1.471 1.441-1.355 2.915-2.678 4.345-4.043 1.376-1.314 2.694-2.684 4.071-3.996 2.333-2.222 4.702-4.41 7.037-6.63 1.353-1.286 2.66-2.615 4.004-3.91 1.975-1.905 3.964-3.798 5.95-5.693 1.774-1.693 3.542-3.392 5.335-5.066.414-.386.555-.742.457-1.317a107.424 107.424 0 0 1-1.42-22.567c.238-5.656 1.052-11.239 2.321-16.78.765-3.34 1.861-6.564 3.134-9.724 1.22-3.028 2.803-5.915 4.677-8.66 1.77-2.59 3.744-5.005 6.048-7.166 1.252-1.174 2.625-2.234 3.966-3.32 2.187-1.767 4.63-3.192 7.165-4.426 2.53-1.232 5.08-2.46 7.844-3.204 2.671-.72 5.287-1.657 7.991-2.226 3.184-.67 6.423-1.145 9.662-1.526 5.19-.611 10.41-.795 15.641-.65 5.755.162 11.465.772 17.162 1.525.962.127 1.929.22 2.974.337.213 1.48.404 2.927.632 4.37.95 5.993 1.301 12.027 1.28 18.08-.021 5.368-.206 10.734-1.247 16.032-.386 1.967-.894 3.912-1.288 5.877-.68 3.392-2.052 6.57-3.27 9.796-.278.736-.692 1.427-1.046 2.137-1.484 2.978-3.233 5.806-5.314 8.443a42.01 42.01 0 0 1-5.288 5.548 44.87 44.87 0 0 1-8.179 5.673 60.208 60.208 0 0 1-13.925 5.434c-5.41 1.378-10.914 2.422-16.515 2.71-4.423.226-8.865.22-13.297.168-3.076-.036-6.152-.29-9.222-.52-1.682-.127-3.355-.389-5.025-.631-.733-.106-1.235.038-1.75.615-.92 1.03-1.982 1.947-2.986 2.91-1.798 1.721-3.59 3.448-5.398 5.161-1.515 1.435-3.062 2.84-4.57 4.281-2.169 2.075-4.305 4.181-6.473 6.257-1.374 1.317-2.797 2.588-4.17 3.906-2.245 2.155-4.455 4.342-6.702 6.494-1.428 1.368-2.9 2.693-4.344 4.046a37.746 37.746 0 0 0-1.717 1.697c-.157.168-.246.431-.276.661-.046.353-.015.715-.015 1.072V284.84h-5.956V216.772c0-12.454-.008-24.908.017-37.361.002-.952-.225-1.623-1.006-2.32-2.245-2-4.343-4.149-6.518-6.221-9.533-9.084-19.073-18.161-28.61-27.24-1.035-.985-1.034-.973-2.426-.812-6.644.769-13.302 1.351-20.005 1.224-4.286-.08-8.548-.439-12.808-.91-4.273-.471-8.411-1.44-12.536-2.55a55.873 55.873 0 0 1-13.767-5.757c-1.94-1.136-3.768-2.472-5.53-3.853a40.84 40.84 0 0 1-4.402-3.979c-1.253-1.317-2.295-2.816-3.415-4.246a25.514 25.514 0 0 1-1.28-1.764c-3.04-4.648-5.216-9.67-6.692-14.934C1.532 101.004.466 95.863.191 90.636c-.226-4.32-.195-8.654-.182-12.981.01-3.47.251-6.935.761-10.377.34-2.302.668-4.605 1.007-6.907.03-.208.1-.411.169-.684 1.383-.198 2.747-.427 4.119-.586 6.568-.76 13.15-1.391 19.777-1.311 6.773.08 13.515.546 20.156 1.901 1.833.374 3.635.888 5.458 1.316 3.331.783 6.492 2.021 9.58 3.402 2.818 1.26 5.483 2.783 8.028 4.524 2.643 1.808 4.996 3.893 7.159 6.169 1.81 1.905 3.342 4.034 4.763 6.229 1.442 2.227 2.705 4.551 3.694 6.976 1.151 2.826 2.24 5.704 2.997 8.642 2.36 9.156 3.218 18.463 2.715 27.888-.233 4.363-.616 8.707-1.386 13.014-.112.63.166.993.585 1.39 3.542 3.355 7.07 6.723 10.603 10.086l11.229 10.69c2.891 2.753 5.79 5.499 8.668 8.265.522.502.951 1.091 1.424 1.64.07-.068.14-.135.212-.202.034-.015.073-.023.102-.045.025-.019.056-.051.056-.078.003-18.463.003-36.926.003-55.364-2.566-1.96-5.141-3.866-7.639-5.86-1.636-1.306-3.17-2.73-4.732-4.12-1.314-1.17-2.647-2.325-3.887-3.564a107.472 107.472 0 0 1-4.27-4.553c-1.601-1.797-3.196-3.604-4.686-5.484-1.24-1.564-2.325-3.238-3.475-4.867-.397-.563-.828-1.112-1.164-1.709-1.33-2.36-2.789-4.669-3.912-7.117-3.23-7.044-4.95-14.396-4.284-22.127.177-2.06.65-4.096 1.015-6.139.52-2.909 1.665-5.626 2.786-8.36.795-1.94 1.85-3.743 2.822-5.594 1.3-2.473 2.862-4.786 4.508-7.045 4.794-6.582 10.436-12.455 16.703-17.784 2.348-1.997 4.778-3.91 7.207-5.819 1.647-1.295 3.355-2.52 5.042-3.77.563-.417 1.405-.427 1.978.003 1.119.84 2.212 1.712 3.324 2.56 1.318 1.005 2.652 1.99 3.966 2.998 1.314 1.008 2.657 1.987 3.907 3.064 3.791 3.265 7.473 6.645 10.824 10.324 2.136 2.343 4.276 4.695 6.053 7.315 1.486 2.191 3.116 4.3 4.494 6.55a57.56 57.56 0 0 1 4.47 8.997c2.243 5.695 3.383 11.558 3.153 17.644-.102 2.689-.606 5.324-1.183 7.955-.58 2.64-1.554 5.141-2.57 7.646-1.264 3.114-2.883 6.049-4.684 8.895-1.937 3.06-4.03 6.024-6.464 8.755-2.037 2.287-4.049 4.596-6.16 6.819-1.304 1.374-2.761 2.62-4.172 3.9-1.466 1.33-2.903 2.696-4.451 3.935-2.614 2.093-5.29 4.114-7.976 6.123-.416.31-.589.601-.553 1.063.014.178.002.358.002.537v53.869c.1.02.2.042.3.064Z" mask="url(#b)"/></g><path fill="#FFF" d="M482.271 266.248c1.238 1.333 2.263 2.511 3.37 3.613 1.679 1.67 3.364 3.338 5.139 4.912 2.432 2.156 4.9 4.282 7.448 6.311 2.778 2.212 5.658 4.31 8.51 6.437a174.526 174.526 0 0 0 4.995 3.617c2.084 1.443 4.203 2.842 6.318 4.243 2.33 1.544 4.649 3.107 7.02 4.591 2.06 1.289 4.177 2.496 6.288 3.707 2.463 1.414 4.917 2.846 7.432 4.172 2.12 1.118 4.32 2.1 6.489 3.135 1.37.654 2.725 1.343 4.124 1.936 5.606 2.373 11.27 4.614 17.365 5.58 2.586.411 5.22.548 7.766-.307 2.343-.787 3.987-2.324 5.01-4.474.015-.032.025-.067.042-.099 2.128-3.786 1.064-7.166-1.484-10.333a27.824 27.824 0 0 0-5.398-5.1c-2.587-1.868-5.223-3.695-7.98-5.322a142.493 142.493 0 0 0-10.146-5.446 184.593 184.593 0 0 0-11.57-5.141c-4.607-1.859-9.263-3.629-13.978-5.22-5.631-1.902-11.328-3.636-17.035-5.322a153.602 153.602 0 0 0-10.818-2.784c-4.295-.934-8.635-1.688-12.968-2.453-1.862-.33-3.76-.42-5.939-.253M469.637 266.202c-1.215 0-2.444-.091-3.653.017-4.189.373-8.304 1.176-12.382 2.135-3.817.898-7.631 1.816-11.417 2.827-3.823 1.02-7.64 2.08-11.404 3.277-4.191 1.334-8.333 2.815-12.474 4.286-3.018 1.071-6.008 2.214-8.996 3.359-1.216.466-2.403 1.003-3.59 1.537-2.302 1.035-4.617 2.046-6.884 3.147-2.8 1.36-5.606 2.72-8.318 4.23-2.811 1.563-5.581 3.213-8.242 4.998a54.914 54.914 0 0 0-5.99 4.669c-1.687 1.508-3.19 3.202-4.191 5.258-1.223 2.511-1.197 4.95.057 7.435.608 1.204 1.313 2.296 2.36 3.217 1.505 1.323 3.256 1.982 5.262 2.154 4.087.35 7.971-.53 11.816-1.706a94.626 94.626 0 0 0 9.128-3.323c3.599-1.518 7.15-3.115 10.593-4.93 2.193-1.158 4.43-2.24 6.591-3.45 2.293-1.283 4.525-2.665 6.77-4.023 2.086-1.262 4.155-2.548 6.23-3.826.346-.213.689-.433 1.026-.66 2.6-1.747 5.239-3.447 7.79-5.258a423.72 423.72 0 0 0 10.702-7.816c2.577-1.953 5.078-4.002 7.54-6.086 2.463-2.085 4.895-4.21 7.225-6.426 1.586-1.508 2.975-3.205 4.446-4.822.035-.038.005-.13.005-.22M465.724 235.154c-.363-.028-.726-.071-1.09-.082-3.509-.1-7 .133-10.474.544-3.954.468-7.914.91-11.842 1.527-3.78.594-7.54 1.319-11.273 2.125a468.648 468.648 0 0 0-14.213 3.323c-2.175.54-4.302 1.263-6.422 1.975-3 1.008-6.006 2.008-8.948 3.148-3.4 1.317-6.702 2.85-9.802 4.709-1.767 1.059-3.418 2.284-4.786 3.789-1.755 1.93-2.246 4.04-1.369 6.52 1.09 3.086 3.55 4.251 6.722 4.542 2.951.27 5.863-.11 8.735-.716 4.365-.922 8.675-2.016 12.837-3.572 3.1-1.16 6.259-2.196 9.31-3.455 3.26-1.343 6.432-2.866 9.626-4.342 2.183-1.008 4.366-2.023 6.499-3.12 2.465-1.268 4.884-2.614 7.306-3.953 2.16-1.194 4.332-2.373 6.434-3.65 2.325-1.414 4.6-2.9 6.85-4.414 1.549-1.04 3.031-2.167 4.519-3.283.543-.408 1.015-.898 1.52-1.35l-.139-.265ZM484.796 235.299c.408.396.78.833 1.232 1.18 2.685 2.073 5.423 4.08 8.349 5.858 2.481 1.507 4.933 3.058 7.433 4.538 1.646.974 3.338 1.88 5.037 2.772 2.943 1.544 5.88 3.098 8.869 4.562 2.42 1.185 4.912 2.242 7.372 3.357.675.306 1.334.645 2.022.924 3.201 1.296 6.378 2.654 9.626 3.84 2.827 1.033 5.7 1.994 8.624 2.754 3.429.892 6.868 1.815 10.439 2.137 1.874.169 3.746.23 5.618-.062 3.155-.492 5.089-2.174 5.906-5.044.538-1.89.236-3.652-1.016-5.165-.93-1.122-2.045-2.143-3.218-3.052-2.2-1.704-4.68-3.023-7.266-4.166-1.39-.615-2.74-1.325-4.169-1.85a410.79 410.79 0 0 0-10.835-3.818c-5.306-1.781-10.772-3.077-16.254-4.272-4.861-1.06-9.756-2.028-14.682-2.774-5.633-.854-11.285-1.672-17-1.926-1.978-.088-3.964-.014-5.947-.014l-.14.22M469.565 202.742c-.62 0-1.239-.015-1.857.002-4.068.113-8.107.54-12.135 1.101-1.898.265-3.823.387-5.703.742-3.626.682-7.22 1.524-10.842 2.225-3.522.682-6.957 1.667-10.36 2.763-3.048.982-6.078 2.024-9.097 3.094-1.144.405-2.237.951-3.344 1.453-2.417 1.094-4.747 2.339-6.94 3.828-1.233.838-2.27 1.887-3.14 3.058-1.663 2.232-.849 5.903 1.625 7.253 1.167.638 2.532.806 3.866.804 1.216-.001 2.437-.097 3.647-.231 3.728-.415 7.272-1.549 10.817-2.702 4.39-1.429 8.631-3.207 12.789-5.176 3.592-1.7 7.133-3.507 10.668-5.322a96.003 96.003 0 0 0 9.501-5.59c2.655-1.775 5.303-3.559 7.963-5.327.67-.444 1.376-.833 2.056-1.263.208-.132.38-.317.57-.477l-.084-.235M478.485 203.001c.589.423 1.17.858 1.77 1.263.574.387 1.175.733 1.754 1.112 3.44 2.254 6.799 4.643 10.338 6.735 3.92 2.317 7.97 4.429 12.029 6.507 2.945 1.508 5.965 2.887 9.009 4.196 5.28 2.271 10.67 4.28 16.317 5.476 2.515.533 5.082.992 7.688.666.838-.105 1.676-.28 2.486-.514.852-.246 1.44-.889 1.898-1.602 1.437-2.236 1.627-4.44-.543-6.75-1.254-1.335-2.693-2.38-4.23-3.307a51.574 51.574 0 0 0-9.57-4.497c-1.911-.672-3.765-1.524-5.706-2.09a326.617 326.617 0 0 0-11.842-3.192c-2.86-.718-5.742-1.38-8.646-1.891-3.448-.609-6.926-1.066-10.4-1.522-3.699-.486-7.41-.863-11.15-.855h-1.084l-.118.265"/></g></svg>