<?xml version="1.0" standalone="no"?>
<!DOCTYPE svg PUBLIC "-//W3C//DTD SVG 20010904//EN"
 "http://www.w3.org/TR/2001/REC-SVG-20010904/DTD/svg10.dtd">
<svg version="1.0" xmlns="http://www.w3.org/2000/svg"
 width="650.000000pt" height="650.000000pt" viewBox="0 0 650.000000 650.000000"
 preserveAspectRatio="xMidYMid meet">
<metadata>
Created by potrace 1.14, written by Peter Selinger 2001-2017
</metadata>
<g transform="translate(0.000000,650.000000) scale(0.100000,-0.100000)"
fill="#000000" stroke="none">
<path d="M3222 6277 c-12 -23 -50 -96 -85 -162 -35 -66 -90 -169 -122 -230
-31 -60 -79 -150 -105 -200 -26 -49 -71 -135 -100 -190 -29 -55 -67 -127 -85
-160 -18 -33 -72 -136 -120 -230 -48 -93 -91 -174 -95 -180 -4 -5 -42 -77 -85
-160 -43 -82 -90 -172 -105 -200 -15 -27 -58 -108 -95 -180 -37 -71 -89 -170
-115 -220 -122 -229 -239 -453 -313 -595 -44 -85 -91 -172 -104 -192 -13 -21
-20 -38 -17 -38 4 0 2 -6 -4 -12 -12 -15 -51 -88 -157 -293 -43 -82 -90 -172
-105 -200 -15 -27 -58 -108 -95 -180 -37 -71 -80 -152 -95 -180 -15 -27 -56
-104 -90 -170 -144 -276 -215 -410 -300 -570 -21 -38 -65 -123 -99 -187 l-61
-118 2575 0 2576 0 -57 107 c-31 60 -73 140 -94 178 -20 39 -66 124 -100 190
-35 66 -80 152 -100 190 -21 39 -63 120 -95 180 -32 61 -79 151 -105 200 -26
50 -71 135 -100 190 -29 55 -74 141 -100 190 -26 50 -73 140 -105 200 -32 61
-77 146 -100 190 -23 44 -66 125 -95 180 -29 55 -72 136 -95 180 -23 44 -71
134 -105 200 -119 228 -226 431 -285 540 -18 33 -65 123 -105 200 -40 77 -93
178 -117 225 -118 224 -158 300 -188 355 -18 33 -65 123 -105 200 -40 77 -98
187 -130 245 -31 58 -78 148 -104 200 -27 52 -52 100 -56 105 -4 6 -47 87 -95
180 -81 156 -134 257 -139 262 -1 2 -12 -16 -24 -40z"/>
</g>
</svg>
